<?xml version="1.0" standalone="no"?>
<!DOCTYPE svg PUBLIC "-//W3C//DTD SVG 20010904//EN"
 "http://www.w3.org/TR/2001/REC-SVG-20010904/DTD/svg10.dtd">
<svg version="1.0" xmlns="http://www.w3.org/2000/svg"
 width="1080.000000pt" height="1045.000000pt" viewBox="0 0 1080.000000 1045.000000"
 preserveAspectRatio="xMidYMid meet">

<g transform="translate(0.000000,1045.000000) scale(0.100000,-0.100000)"
fill="#e0c0a2" stroke="black">
<path d="M5257 9937 c-98 -94 -177 -176 -177 -181 0 -12 34 -51 188 -219 74
-81 139 -146 143 -145 18 7 379 351 379 361 0 15 -331 357 -345 357 -6 0 -90
-78 -188 -173z"/>
<path d="M4236 9425 c-61 -23 -112 -47 -114 -53 -12 -37 107 -157 221 -224 40
-23 74 -43 76 -45 4 -3 -30 -41 -179 -198 -114 -120 -110 -113 -110 -234 0
-58 -3 -129 -6 -157 l-6 -51 -72 -6 c-252 -19 -509 -280 -478 -486 7 -51 19
-35 24 33 10 120 83 232 190 292 48 26 62 29 143 29 74 0 100 -4 144 -24 l53
-25 -7 -467 -7 -468 113 -191 c62 -104 116 -190 120 -190 17 0 21 334 17 1147
l-5 872 46 45 c26 25 49 46 51 46 3 0 5 -522 5 -1159 0 -1125 1 -1160 19
-1180 43 -48 44 -36 39 592 l-5 592 47 -45 c61 -59 154 -198 220 -331 57 -113
139 -310 150 -359 4 -16 10 -32 14 -34 4 -3 42 27 84 65 l77 70 0 682 c0 817
-12 1199 -39 1237 -31 44 -75 61 -189 75 -142 18 -273 61 -405 135 -59 33
-111 59 -115 59 -4 -1 -56 -20 -116 -44z m326 -386 c29 -11 91 -31 138 -43
l85 -23 6 -339 c4 -186 10 -427 14 -534 l7 -195 -90 120 c-49 66 -117 146
-151 178 l-61 58 -7 400 c-3 219 -3 399 0 399 3 0 30 -9 59 -21z"/>
<path d="M6323 9156 l-223 -225 -1 127 c-2 179 -10 247 -30 247 -18 0 -251
-203 -275 -240 -14 -22 -15 -100 -3 -847 l12 -823 97 -130 c54 -72 118 -163
144 -202 44 -68 63 -90 71 -81 2 2 0 422 -5 933 -5 511 -5 935 -2 941 4 6 28
35 54 65 l48 53 -2 -1047 c-1 -576 1 -1050 5 -1053 3 -4 13 -4 20 -1 12 5 16
121 22 754 4 411 5 892 2 1069 l-5 321 64 64 c35 34 66 60 70 57 18 -19 20
-151 11 -978 -10 -930 -8 -1060 20 -1060 16 0 53 32 187 159 l69 66 -2 970
c-1 634 -6 984 -12 1010 -15 55 -35 75 -78 75 -34 0 -50 -14 -258 -224z"/>
<path d="M5420 9108 c-1 -203 -84 -639 -152 -796 -13 -30 -12 -36 14 -91 16
-33 37 -94 48 -137 38 -148 80 -425 80 -531 0 -70 16 -128 29 -103 5 8 11 76
15 150 12 266 47 433 122 587 l44 93 -18 37 c-30 59 -80 201 -97 274 -25 112
-55 330 -55 409 0 95 -10 180 -21 180 -5 0 -9 -33 -9 -72z"/>
<path d="M5514 8994 c-4 -20 -4 -105 -1 -188 6 -153 26 -265 63 -356 19 -49
55 -110 65 -110 3 0 23 16 45 35 l39 35 -25 22 c-41 37 -67 79 -100 162 -43
109 -60 200 -60 321 0 105 -13 146 -26 79z"/>
<path d="M5182 8177 l-32 -33 42 -45 c70 -73 136 -264 139 -399 0 -36 4 -90 8
-120 7 -50 8 -52 15 -27 15 51 -1 344 -23 440 -22 94 -76 210 -101 215 -9 1
-30 -12 -48 -31z"/>
<path d="M7418 7967 c-35 -29 -151 -124 -258 -212 -107 -87 -230 -188 -272
-223 l-77 -64 6 -607 6 -606 65 -75 c186 -215 306 -340 326 -340 21 0 122 69
449 304 93 67 198 141 234 166 76 53 93 85 93 175 0 79 -25 147 -89 240 -82
121 -138 137 -301 85 -104 -33 -167 -37 -208 -16 -39 20 -78 65 -97 110 -12
27 -19 36 -27 28 -30 -30 55 -261 126 -339 70 -78 139 -91 267 -49 109 35 133
38 180 26 47 -13 99 -61 99 -91 0 -13 -28 -37 -87 -76 -124 -80 -357 -247
-426 -305 -32 -26 -62 -48 -66 -48 -4 0 -29 23 -56 50 l-49 50 -12 753 c-7
413 -15 770 -19 793 -5 38 -3 43 35 78 23 21 45 36 50 34 4 -2 50 -50 101
-108 51 -58 135 -150 187 -204 106 -111 127 -149 118 -215 -8 -57 -36 -101
-87 -137 -23 -15 -36 -30 -30 -32 39 -13 243 172 295 268 36 66 47 170 23 216
-23 44 -399 425 -419 424 -10 0 -46 -24 -80 -53z m-218 -1061 c6 -373 8 -681
5 -684 -3 -3 -24 13 -47 36 l-42 41 -7 656 c-4 360 -10 658 -13 663 -7 12 4
27 49 62 l40 32 2 -64 c1 -34 7 -368 13 -742z"/>
<path d="M3234 7914 c-59 -40 -194 -157 -247 -213 -87 -93 -183 -261 -211
-368 -29 -110 -15 -235 35 -336 26 -51 149 -198 200 -239 71 -57 520 -529 579
-609 63 -85 76 -114 66 -152 -6 -27 -54 -57 -90 -57 -67 0 -165 80 -289 234
-44 56 -99 122 -121 147 -23 25 -77 90 -122 145 -222 271 -346 368 -515 403
-149 31 -355 -73 -424 -213 -28 -58 -44 -146 -26 -146 6 0 11 11 11 25 0 35
34 99 65 123 94 74 212 43 375 -100 142 -125 352 -348 494 -525 140 -176 277
-318 335 -348 55 -28 119 -17 186 34 92 70 347 365 447 519 10 15 18 45 18 68
0 75 -42 137 -220 319 -91 94 -206 213 -256 265 -50 52 -151 158 -224 235
-245 257 -311 406 -240 545 24 46 16 48 124 -33 170 -129 373 -346 422 -452
38 -80 25 -178 -26 -205 -15 -8 -19 -15 -12 -22 20 -20 171 73 253 156 81 81
107 178 70 257 -20 43 -153 180 -364 377 -76 71 -231 192 -246 192 -5 0 -26
-12 -47 -26z m-248 -373 c0 -53 6 -81 27 -122 39 -79 99 -167 163 -240 62 -70
372 -394 582 -608 74 -75 147 -158 163 -186 32 -55 37 -108 14 -139 -17 -22
-17 -23 -40 24 -10 19 -124 143 -254 275 -604 614 -656 676 -697 828 -20 75
-17 125 11 185 13 28 25 52 27 52 2 0 3 -31 4 -69z"/>
<path d="M8539 6571 c-90 -24 -200 -80 -283 -144 -72 -54 -154 -142 -143 -153
3 -4 27 12 53 35 69 60 174 109 274 127 251 45 477 -82 515 -288 11 -56 20
-52 148 51 77 62 79 72 41 150 -53 106 -166 194 -289 227 -71 19 -236 17 -316
-5z"/>
<path d="M1706 6325 c-84 -22 -168 -70 -225 -130 -50 -53 -101 -140 -101 -173
0 -30 184 -183 199 -166 5 5 14 32 20 59 50 206 300 321 555 255 93 -24 176
-66 235 -121 24 -22 45 -38 48 -35 18 18 -113 143 -218 209 -154 95 -369 138
-513 102z"/>
<path d="M8370 6307 c-102 -31 -193 -82 -262 -146 -76 -69 -76 -90 0 -45 161
97 317 84 434 -37 31 -33 59 -59 63 -59 13 0 235 175 235 185 0 20 -54 63
-115 91 -52 24 -75 28 -170 31 -92 3 -122 -1 -185 -20z"/>
<path d="M1904 6066 c-92 -21 -194 -80 -194 -111 0 -14 114 -110 204 -172 37
-27 38 -27 52 -8 70 98 158 147 262 147 87 0 133 -13 206 -57 33 -19 61 -33
63 -31 19 18 -96 120 -186 166 -132 66 -292 92 -407 66z"/>
<path d="M8775 5923 c-209 -154 -298 -223 -422 -326 -79 -65 -143 -123 -143
-128 0 -15 18 -10 60 16 44 27 70 31 88 13 9 -9 12 -120 13 -432 1 -232 5
-514 8 -628 l6 -208 249 -250 c137 -137 255 -250 260 -250 18 0 269 276 293
322 25 47 28 70 13 99 -15 27 -29 24 -36 -8 -10 -44 -69 -145 -104 -178 l-31
-30 -139 145 -139 145 -1 237 0 237 193 198 c259 266 314 360 305 527 -5 116
-34 162 -227 361 -91 93 -173 171 -181 172 -8 2 -37 -14 -65 -34z m-77 -606
c1 -276 5 -626 8 -777 l6 -275 -48 47 -47 46 -8 474 c-4 260 -10 574 -12 698
l-4 225 41 32 c23 17 46 32 51 32 7 1 11 -174 13 -502z m109 230 c75 -112 98
-199 98 -372 -1 -119 -4 -150 -23 -204 -21 -59 -110 -211 -123 -211 -6 0 -19
508 -19 738 0 68 4 122 9 122 5 0 31 -33 58 -73z"/>
<path d="M2044 5590 c-54 -11 -152 -51 -231 -96 -123 -68 -245 -221 -301 -376
-23 -64 -26 -89 -27 -198 0 -116 2 -129 27 -180 15 -30 44 -71 65 -90 l37 -35
-33 39 c-62 73 -76 118 -75 236 1 115 17 177 75 291 44 88 156 200 240 239 88
40 219 57 336 41 47 -6 88 -13 91 -16 3 -3 -54 -66 -127 -139 l-133 -134 3
-593 2 -593 -49 -37 c-27 -21 -50 -42 -51 -46 -2 -5 53 -67 121 -138 68 -72
236 -249 373 -395 137 -146 254 -265 260 -265 5 0 61 56 123 125 62 69 159
172 214 230 216 225 246 310 251 700 4 297 11 330 87 402 33 31 45 49 37 52
-8 3 -31 9 -53 15 -100 26 -139 81 -226 316 -76 205 -114 267 -244 404 -108
112 -273 204 -425 237 -71 15 -298 17 -367 4z m310 -1509 c-3 -3 -22 11 -41
33 l-35 38 6 647 c3 355 6 649 6 653 0 4 15 24 33 44 l32 37 3 -723 c1 -398
-1 -726 -4 -729z m222 1097 c129 -132 152 -164 232 -323 73 -147 96 -218 113
-360 20 -155 15 -587 -8 -833 l-18 -192 -215 240 c-118 133 -232 262 -253 287
l-38 47 5 75 c3 42 8 331 12 643 l6 568 27 -19 c14 -11 76 -70 137 -133z"/>
<path d="M702 5412 c-95 -92 -172 -174 -172 -183 0 -22 336 -349 358 -349 17
0 352 328 352 345 0 13 -342 355 -355 355 -5 -1 -88 -76 -183 -168z"/>
<path d="M9772 5387 c-94 -95 -172 -179 -172 -187 0 -21 322 -350 342 -350 22
0 358 327 358 349 0 14 -337 361 -351 361 -2 0 -82 -78 -177 -173z"/>
<path d="M8095 4982 c-16 -11 -120 -111 -231 -224 l-201 -206 -7 106 c-3 58
-6 136 -6 173 0 72 -6 99 -22 99 -10 0 -224 -188 -267 -234 l-25 -26 12 -913
12 -912 139 -138 c106 -104 143 -136 156 -130 17 6 18 57 11 967 l-7 961 44
43 44 43 6 -358 c4 -197 10 -618 14 -935 7 -602 7 -604 48 -574 16 11 16 67 6
822 -6 445 -13 874 -17 953 l-6 144 58 58 c32 33 64 59 71 59 8 0 18 -12 23
-26 7 -16 8 -346 3 -925 -6 -860 -6 -899 12 -899 19 0 58 33 182 153 l83 79
-1 797 c0 438 -4 845 -8 905 -7 102 -9 111 -35 132 -33 29 -51 30 -91 6z"/>
<path d="M3579 4618 c0 -2 -2 -64 -3 -138 -2 -109 -7 -154 -29 -234 -29 -108
-69 -202 -117 -272 -31 -46 -37 -69 -21 -79 10 -5 198 153 257 216 59 63 133
169 143 204 17 64 -2 101 -101 198 -78 76 -126 115 -129 105z"/>
<path d="M3949 4027 c-124 -88 -229 -169 -493 -383 -63 -51 -80 -70 -67 -78 5
-4 32 7 59 24 48 29 95 39 106 21 5 -8 14 -617 16 -1146 l1 -270 66 -70 c127
-135 497 -505 505 -505 9 0 230 225 283 289 70 85 91 154 60 195 -19 25 -32
14 -40 -35 -7 -40 -84 -167 -123 -202 -19 -17 -24 -13 -178 147 l-159 165 5
269 5 270 204 205 c220 222 256 265 307 372 82 171 64 329 -54 468 -49 57
-348 367 -355 367 -2 0 -69 -46 -148 -103z m-11 -925 l2 -877 -51 52 -52 52
-8 783 c-4 431 -6 783 -5 784 0 0 25 20 54 42 30 23 55 42 55 42 1 0 3 -395 5
-878z m158 493 c89 -185 100 -437 28 -620 -16 -41 -123 -210 -128 -204 -2 2
-6 225 -10 494 l-6 490 41 -45 c23 -25 57 -76 75 -115z"/>
<path d="M6686 4043 c-41 -38 -132 -120 -203 -184 -119 -108 -404 -398 -411
-420 -8 -21 26 -7 54 22 16 17 42 37 57 45 30 16 66 11 68 -9 1 -7 0 -295 -1
-642 l-2 -630 263 -277 c152 -162 269 -278 279 -278 21 0 289 276 325 335 26
43 33 103 13 123 -20 20 -27 14 -38 -29 -16 -60 -116 -209 -140 -209 -4 0 -74
71 -155 158 l-147 157 7 260 6 260 218 215 c225 223 264 272 311 396 16 42 23
83 24 144 1 76 -2 92 -30 150 -18 36 -53 90 -79 120 -70 81 -306 333 -327 348
-15 11 -27 4 -92 -55z m-70 -380 c-3 -153 -7 -467 -8 -698 -2 -231 -5 -484 -8
-563 l-5 -143 -43 44 -42 43 0 753 0 753 48 44 c26 24 51 43 56 44 5 0 6 -115
2 -277z m155 -80 c47 -99 69 -201 69 -322 0 -179 -32 -285 -126 -415 l-49 -68
-3 329 c-2 180 0 393 4 473 l6 145 35 -40 c19 -22 48 -68 64 -102z"/>
<path d="M5692 3102 c-203 -204 -242 -237 -274 -228 -13 3 -61 37 -108 77
-257 214 -301 240 -425 247 -65 3 -91 0 -138 -18 -162 -61 -320 -220 -371
-374 -24 -69 -39 -191 -31 -247 10 -71 25 -60 25 19 0 79 21 176 51 234 12 23
47 67 78 98 43 43 69 60 114 74 83 26 193 19 271 -17 56 -26 58 -28 52 -58 -3
-17 -6 -388 -6 -823 l-1 -791 -84 -98 c-46 -54 -92 -108 -100 -120 -16 -22
-17 -21 -106 72 -100 106 -162 196 -179 259 -14 53 -40 58 -40 7 0 -53 31
-109 124 -226 110 -137 230 -251 286 -269 l43 -14 53 59 54 60 0 940 0 939 60
-59 60 -59 0 -706 c0 -388 3 -756 7 -818 6 -109 7 -112 29 -112 16 0 63 38
154 127 l131 126 -3 487 -3 487 -68 102 -68 102 109 117 c60 64 123 132 139
151 25 29 34 33 57 27 15 -4 49 -28 75 -54 66 -66 92 -142 98 -287 8 -168 -23
-279 -127 -455 -17 -29 -29 -55 -26 -58 3 -2 22 8 42 24 74 59 72 58 113 45
43 -13 95 -65 119 -120 10 -23 16 -67 16 -121 1 -75 -3 -92 -30 -150 -17 -36
-70 -112 -118 -169 l-86 -105 0 -141 0 -142 83 -69 c45 -38 108 -93 139 -122
46 -44 60 -52 75 -44 31 17 329 326 378 393 51 70 62 98 45 128 -15 29 -27 26
-35 -9 -8 -38 -105 -168 -174 -235 l-51 -49 -91 89 c-50 50 -95 98 -100 108
-12 22 0 46 62 117 108 126 179 288 179 410 0 67 -25 140 -65 193 -64 84 -207
132 -309 104 -28 -8 -28 -8 14 40 62 71 163 226 209 323 59 124 83 223 84 355
1 131 -18 206 -69 282 -39 58 -117 123 -147 123 -11 0 -88 -70 -195 -178z m39
-155 c76 -51 119 -153 126 -297 4 -81 1 -111 -21 -193 -14 -54 -33 -110 -41
-125 -16 -27 -16 -27 -10 -2 14 54 17 251 5 313 -23 118 -85 214 -166 255
l-35 18 27 27 c33 33 70 35 115 4z"/>
<path d="M5219 881 c-89 -93 -165 -175 -170 -182 -5 -10 47 -69 167 -192 95
-97 179 -177 185 -177 20 0 349 342 349 364 0 17 -336 356 -353 356 -9 0 -89
-76 -178 -169z"/>
</g>
</svg>
